<svg id="Layer_1" data-name="Layer 1" xmlns="http://www.w3.org/2000/svg" width="750" height="352.94" viewBox="0 0 750 352.94"><title>beauty-bay-logo</title><path d="M337,382.35c33.75,0,50.18,18.89,50.18,45.7,0,14.68-7,26.11-18,31.94v.93c13.81,7.46,20.6,20.51,20.6,36.83a58.69,58.69,0,0,1-3.3,20.58l10.51,6c-6.73,17.94-23.79,27.16-52.12,27.16h-55V463.42l-10.53-6V382.35Zm-175.48,0L214,392.19l36,45.24-.15,58.92-36.24,45-55.38,10.08-48.61-29.59-14-40.75,17.85,1.7,9.45,27.44,2.47,1.5,4.57-24.5,30-11.23c1.77-.54,18.06-6.23,14.11-32.9-2-13.55.26-24.84,6.72-33.55a34.77,34.77,0,0,1,5-5.41l-17.92-3.36-6.25-18.46Zm319,0,48.81,169.12H491.16l-8.8-33.1H444.11l-8.8,33.1H397.06l48.81-169.12Zm90.06,0,.56,1.44,25,53.56,25.67-55h39.87l-79,169.12H542.94l32.71-70.07-46.24-99Zm-344.5,51.7a20.41,20.41,0,0,0-7.7,6.2c-3.54,4.85-4.69,11.71-3.4,20.39,5,33.74-14.4,48.58-25.7,51.87l-20.28,7.62-2.33,12.52,38.26-7,28.62-35.57.12-46.53Zm-18-22.56,0,.23s-9.43,1.16-14.74,8.43c-3.55,4.85-4.69,11.71-3.41,20.39,5,33.74-14.4,48.58-25.69,51.87L144.09,500l-3.88,20.79,10.95,6.67,3.75-20.12,30-11.23c1.77-.53,18.06-6.22,14.11-32.89-2-13.56.26-24.85,6.72-33.56a35.5,35.5,0,0,1,9.81-9Zm125.12,66.45H315.58l10.29,5.85v34.58h16.43c12.53,0,19.44-3.19,20.78-13.33l-10.52-6a28.78,28.78,0,0,0,.25-3.86C352.82,482.14,345.81,477.94,333.32,477.94Zm130.35-43.16h-.87l-11.44,49h23.75ZM335.29,415.46H315.35v31h19.94c11,0,15.12-5.37,15.12-15.39C350.41,420.82,346.25,415.46,335.29,415.46ZM67.94,198.53c17.69,0,30.6,5.13,38.89,13.83l-10.28,8.31c7.44,7.86,11.12,18.62,11.12,31.12,0,14.48-7,25.75-18,31.5v.91c13.79,7.36,20.57,20.23,20.57,36.32,0,31-17.72,47.13-55.36,47.13H0V298l10.39-8.33V198.53Zm591,0,.55,1.44,25,53.55,25.68-55H750l-79,169.12H631.17l32.72-70.08-46.24-99Zm-445.66,0v34.31H158.51v31.4h54.73v34.31H158.51v34.79h54.73v34.31H125V198.53Zm90.89,0,48.81,169.12H314.69l-8.8-33.1H267.64l-8.8,33.1H220.59l48.8-169.12Zm93.58,0V307c0,15.77,4.5,26,21.41,26s21.41-10.27,21.41-26V198.53h37.41V309.12c0,37-19.83,58.53-58.82,58.53s-58.83-21.5-58.83-58.53V198.53Zm212.58,0v36.72H570v132.4H533.12V235.25H492.65V198.53ZM53.83,301H35.89v34H52.3c14,0,21-3.9,21-17C73.31,305.12,66.31,301,53.83,301ZM287.2,251h-.88l-11.43,49h23.75Zm-221-19.79H46.28v30.09l-10.39,8.39v.3H55.8c11,0,15.1-5.28,15.1-15.17,0-4.8-1-8.5-3.1-11.07l10.33-8.28C75.74,232.62,71.9,231.17,66.19,231.17Z" transform="translate(0 -198.53)"/></svg>