<?xml version="1.0" encoding="UTF-8"?>
<svg width="100px" height="24px" viewBox="0 0 100 24" version="1.1" xmlns="http://www.w3.org/2000/svg" xmlns:xlink="http://www.w3.org/1999/xlink">
    <title>Clearpay</title>
    <g id="Symbols" stroke="none" stroke-width="1" fill="none" fill-rule="evenodd">
        <g id="FOOTER-D" transform="translate(-556.000000, -306.000000)" fill-rule="nonzero">
            <g id="Payment-Options" transform="translate(332.000000, 305.000000)">
                <g id="Clearpay" transform="translate(224.000000, 1.000000)">
                    <rect id="Rectangle" fill="#B1FBE3" x="0" y="0" width="100" height="24" rx="12"></rect>
                    <polygon id="Path" fill="#100F0D" points="76.2631708 7.670176 70.2419077 20.0672 67.743296 20.0672 69.9930726 15.43464 66.4561518 7.670176 69.0185756 7.670176 71.2912797 12.869696 73.7735376 7.670176"></polygon>
                    <path d="M46.3519793,20.0672 L46.3519793,7.670256 L48.5230331,7.670256 L48.5230331,8.814576 C49.1760647,8.00472 50.1467138,7.511696 51.3115248,7.511696 C53.6940563,7.511696 55.5648084,9.46608 55.5648084,12.054288 C55.5648084,14.642336 53.6587833,16.6144 51.2586153,16.6144 C50.1467138,16.6144 49.2289743,16.17424 48.5934188,15.434784 L48.5934188,20.0672 L46.3519793,20.0672 Z M53.3411658,12.071776 C53.3411658,10.645744 52.2645374,9.554032 50.9408375,9.554032 C49.6171377,9.554032 48.5405092,10.61056 48.5405092,12.071776 C48.5405092,13.515584 49.6171377,14.589664 50.9408375,14.589664 C52.2645374,14.589664 53.3411658,13.498016 53.3411658,12.071776 Z" id="Shape" fill="#100F0D"></path>
                    <path d="M63.4084034,16.47328 L63.4084034,15.328736 C62.7555321,16.12112 61.7847227,16.61408 60.6199117,16.61408 C58.2021072,16.61408 56.3664677,14.677296 56.3664677,12.071456 C56.3664677,9.483408 58.2724929,7.511376 60.6728212,7.511376 C61.8023592,7.511376 62.7555321,8.00448 63.4084034,8.779136 L63.4084034,7.669936 L65.5797778,7.669936 L65.5797778,16.47328 L63.4084034,16.47328 Z M63.3907669,12.071456 C63.3907669,10.592688 62.3142988,9.553792 60.9904386,9.553792 C59.6668991,9.553792 58.5902707,10.61024 58.5902707,12.071456 C58.5902707,13.5152 59.6668991,14.58928 60.9904386,14.58928 C62.3142988,14.58928 63.3907669,13.550544 63.3907669,12.071456 Z" id="Shape" fill="#100F0D"></path>
                    <path d="M42.4414852,8.532928 C42.4414852,8.532928 42.9936682,7.51176 44.3473501,7.51176 C44.9263084,7.51176 45.3006833,7.71048 45.3006833,7.71048 L45.3006833,9.95592 C45.3006833,9.95592 44.4839528,9.452672 43.7339204,9.554176 C42.9842086,9.655536 42.5096263,10.34248 42.5120313,11.26184 L42.5120313,16.47344 L40.2707522,16.47344 L40.2707522,7.670176 L42.4414852,7.670176 L42.4414852,8.532928" id="Path" fill="#100F0D"></path>
                    <path d="M93.1087584,7.172992 L90.5418453,5.703632 L87.9377352,4.213504 C86.2124041,3.225824 84.0613918,4.468544 84.0613918,6.453248 L84.0613918,6.787712 C84.0613918,6.97072 84.1595149,7.139728 84.3192055,7.2308 L85.526825,7.922176 C85.8617583,8.11392 86.2792625,7.872608 86.2792625,7.487232 L86.2792625,6.695088 C86.2792625,6.302832 86.7047832,6.05728 87.0458091,6.252448 L89.4248133,7.614384 L91.7970835,8.97224 C92.1401937,9.168368 92.1401937,9.661392 91.7970835,9.857456 L89.4248133,11.215312 L87.0458091,12.577328 C86.7047832,12.772416 86.2792625,12.526864 86.2792625,12.134608 L86.2792625,11.741088 C86.2792625,9.756384 84.1282502,8.513664 82.4029191,9.50136 L79.7996106,10.991552 L77.2326975,12.460848 C75.4983878,13.4532 75.4983878,15.948032 77.2326975,16.94032 L79.7996106,18.4096 L82.4029191,19.89984 C84.1282502,20.88752 86.2792625,19.64464 86.2792625,17.66 L86.2792625,17.3248 C86.2792625,17.14176 86.1811394,16.9728 86.0222505,16.8816 L84.8146309,16.1904 C84.4795373,15.998496 84.0613918,16.23984 84.0613918,16.62528 L84.0613918,17.41824 C84.0613918,17.8104 83.6365124,18.056 83.2956469,17.8608 L80.9160014,16.49888 L78.5437312,15.141072 C78.2012623,14.945024 78.2012623,14.45192 78.5437312,14.255792 L80.9160014,12.898 L83.2956469,11.536 C83.6365124,11.340832 84.0613918,11.586384 84.0613918,11.97864 L84.0613918,12.37216 C84.0613918,14.356848 86.2124041,15.599648 87.9377352,14.611888 L90.5418453,13.121776 L93.1087584,11.652464 C94.8422665,10.660112 94.8422665,8.165344 93.1087584,7.172992" id="Path" fill="#100F0D"></path>
                    <path d="M15.3280848,13.192512 C14.8518992,15.21568 13.1060455,16.60544 10.8488936,16.60544 C8.23901154,16.60544 6.28151984,14.652624 6.28151984,12.06672 C6.28151984,9.480736 8.27428455,7.510416 10.8841666,7.510416 C13.088409,7.510416 14.8166262,8.900208 15.310288,10.888016 L13.0180233,10.888016 C12.6122234,10.0964 11.8011045,9.568688 10.9018031,9.568688 C9.59686208,9.568688 8.50355911,10.641728 8.50355911,12.06672 C8.50355911,13.491568 9.59686208,14.564832 10.9018031,14.564832 C11.8363775,14.564832 12.6476567,14.036976 13.0356598,13.192512 L15.3280848,13.192512" id="Path" fill="#100F0D"></path>
                    <polygon id="Path" fill="#100F0D" points="16.3649509 16.4648 16.3649509 4.049904 18.5868299 4.049904 18.5868299 16.4648"></polygon>
                    <path d="M26.3518623,11.275088 C26.1929734,10.131664 25.258399,9.445552 24.165096,9.445552 C23.071793,9.445552 22.1724916,10.114032 21.9432171,11.275088 L26.3518623,11.275088 Z M21.9254202,12.647328 C22.0843091,13.948944 23.0188835,14.687968 24.200369,14.687968 C25.1349434,14.687968 25.8580401,14.248064 26.2811559,13.5444 L28.5561047,13.5444 C28.0270096,15.409136 26.3518623,16.60544 24.1474595,16.60544 C21.4846679,16.60544 19.6155191,14.740656 19.6155191,12.084288 C19.6155191,9.427984 21.590487,7.510416 24.200369,7.510416 C26.8278876,7.510416 28.7324697,9.445552 28.7324697,12.084288 C28.7324697,12.277824 28.7148332,12.47136 28.6795602,12.647328 L21.9254202,12.647328 Z" id="Shape" fill="#100F0D"></path>
                    <path d="M36.6296156,12.06672 C36.6296156,10.589056 35.5539491,9.551136 34.2313716,9.551136 C32.9087941,9.551136 31.8331276,10.606608 31.8331276,12.06672 C31.8331276,13.50928 32.9087941,14.58232 34.2313716,14.58232 C35.5539491,14.58232 36.6296156,13.5444 36.6296156,12.06672 Z M36.6472521,16.46464 L36.6472521,15.321184 C35.9947014,16.1128 35.024854,16.60544 33.861005,16.60544 C31.4451245,16.60544 29.6110883,14.670336 29.6110883,12.06672 C29.6110883,9.480736 31.5156705,7.510416 33.9139145,7.510416 C35.0424905,7.510416 35.9947014,8.002992 36.6472521,8.777072 L36.6472521,7.668752 L38.8162215,7.668752 L38.8162215,16.46464 L36.6472521,16.46464 Z" id="Shape" fill="#100F0D"></path>
                </g>
            </g>
        </g>
    </g>
</svg>