<?xml version="1.0" encoding="UTF-8"?>
<svg width="62px" height="25px" viewBox="0 0 62 25" version="1.1" xmlns="http://www.w3.org/2000/svg" xmlns:xlink="http://www.w3.org/1999/xlink">
    <title>Klarna</title>
    <g id="Symbols" stroke="none" stroke-width="1" fill="none" fill-rule="evenodd">
        <g id="FOOTER-D" transform="translate(-462.000000, -305.000000)" fill-rule="nonzero">
            <g id="Payment-Options" transform="translate(332.000000, 305.000000)">
                <g id="Klarna" transform="translate(130.000000, 0.000000)">
                    <rect id="Rectangle" fill="#FFB3C7" x="0" y="0" width="62" height="25" rx="7.63683177"></rect>
                    <path d="M49.647864,10.954118 C48.047953,9.86735783 45.8867192,10.1377341 44.6058057,11.5848933 C43.3248921,13.0320525 43.3248921,15.2034096 44.6058057,16.6505688 C45.8867192,18.097728 48.047953,18.3681043 49.647864,17.2813441 L49.647864,17.7448862 L51.826854,17.7448862 L51.826854,10.4900814 L49.647864,10.4900814 L49.647864,10.954118 Z M47.666096,15.9843533 C46.6449101,15.9302187 45.8555618,15.0703893 45.8917782,14.0516062 C45.9279946,13.0328231 46.7764178,12.2308499 47.7988861,12.2489096 C48.8213544,12.2669694 49.640734,13.0984012 49.640734,14.1178238 C49.6117058,15.1764695 48.7281141,16.0116859 47.666096,15.9843533 L47.666096,15.9843533 Z" id="Shape" fill="#000000"></path>
                    <rect id="Rectangle" fill="#000000" x="17.485674" y="7.25696796" width="2.28036" height="10.4880418"></rect>
                    <path d="M39.775604,10.2948993 C38.9059005,10.2436595 38.0665932,10.6223131 37.531204,11.3074607 L37.531204,10.4904523 L35.361204,10.4904523 L35.361204,17.7450098 L37.557306,17.7450098 L37.557306,13.9324687 C37.5231637,13.4893099 37.6840326,13.0532553 37.9980642,12.7377403 C38.3120957,12.4222253 38.748245,12.2584415 39.193052,12.2889956 C40.150766,12.2889956 40.701202,12.8593378 40.701202,13.9174499 L40.701202,17.7450098 L42.877836,17.7450098 L42.877836,13.131468 C42.877836,11.4430622 41.531134,10.2948993 39.775604,10.2948993 Z" id="Path" fill="#000000"></path>
                    <path d="M26.66,10.954118 C25.060089,9.86735783 22.8988552,10.1377341 21.6179417,11.5848933 C20.3370281,13.0320525 20.3370281,15.2034096 21.6179417,16.6505688 C22.8988552,18.097728 25.060089,18.3681043 26.66,17.2813441 L26.66,17.7448862 L28.83899,17.7448862 L28.83899,10.4900814 L26.66,10.4900814 L26.66,10.954118 Z M24.67817,15.9843533 C23.6569431,15.9303517 22.8674688,15.0705736 22.9035985,14.0517537 C22.9397283,13.0329337 23.7881352,12.230875 24.8106381,12.2488952 C25.833141,12.2669154 26.65256,13.0983674 26.65256,14.1178238 C26.623565,15.1764102 25.7400675,16.0116162 24.678108,15.9843533 L24.67817,15.9843533 Z" id="Shape" fill="#000000"></path>
                    <path d="M32.209806,11.4350893 L32.209806,10.4901432 L29.97886,10.4901432 L29.97886,17.7450716 L32.21458,17.7450716 L32.21458,14.358124 C32.21458,13.2152764 33.457184,12.6009904 34.319418,12.6009904 C34.328098,12.6009904 34.33653,12.6018557 34.345272,12.6019175 L34.345272,10.4905759 C33.5270695,10.4686827 32.7425683,10.8156664 32.209806,11.4350893 Z" id="Path" fill="#000000"></path>
                    <path d="M54.14026,15.1717949 C53.3849314,15.171829 52.772664,15.7822457 52.772664,16.5352061 C52.772664,17.2881666 53.3850141,17.898535 54.1403427,17.898535 C54.8956713,17.898535 55.50798,17.2881254 55.50798,16.5351649 C55.5080129,16.1735559 55.3639228,15.826749 55.1074167,15.5710587 C54.8509105,15.3153683 54.5030063,15.1717457 54.14026,15.1717949 L54.14026,15.1717949 Z" id="Path" fill="#000000"></path>
                    <path d="M15.91385,7.25499019 L13.550596,7.25499019 C13.558013,9.1710066 12.6508371,10.9763199 11.107052,12.1177323 L10.170852,12.8167538 L13.798658,17.7483473 L16.78123,17.7483473 L13.443336,13.2105791 C15.0334491,11.6351434 15.9233713,9.48983634 15.91385,7.25499019 Z" id="Path" fill="#000000"></path>
                    <rect id="Rectangle" fill="#000000" x="7.514648" y="7.25499019" width="2.36747" height="10.4929245"></rect>
                </g>
            </g>
        </g>
    </g>
</svg>